<svg width="64" height="64" viewBox="0 0 64 64" fill="none" xmlns="http://www.w3.org/2000/svg">
  <defs>
    <linearGradient id="logo-gradient" x1="0%" y1="0%" x2="100%" y2="100%">
      <stop offset="0%" stop-color="#4F46E5" />
      <stop offset="100%" stop-color="#7C3AED" />
    </linearGradient>
  </defs>
  <circle cx="32" cy="32" r="32" fill="url(#logo-gradient)"/>
  <path d="M46 18C44 16 38 15 32 15C26 15 20 16 18 18C16 20 17 26 19 32C19.5 33.5 17 38 17 38L21 38C21 38 22.5 40.5 24 41C30 43 34 43 40 41C41.5 40.5 43 38 43 38L47 38C47 38 44.5 33.5 45 32C47 26 48 20 46 18Z" fill="white"/>
  <rect x="28" y="44" width="8" height="4" rx="2" fill="white" opacity="0.6"/>
  <path d="M32 22V30" stroke="#4F46E5" stroke-width="2" stroke-linecap="round"/>
</svg>
